<?xml version="1.0" encoding="UTF-8" standalone="no" ?>
<!DOCTYPE svg PUBLIC "-//W3C//DTD SVG 1.1//EN" "http://www.w3.org/Graphics/SVG/1.1/DTD/svg11.dtd">
<svg xmlns="http://www.w3.org/2000/svg" xmlns:xlink="http://www.w3.org/1999/xlink" version="1.1" width="70" height="70" viewBox="0 0 70 70" xml:space="preserve">
<g transform="matrix(1 0 0 1 124 -83)"  >
<rect style="stroke: none; stroke-width: 1; stroke-dasharray: none; stroke-linecap: butt; stroke-dashoffset: 0; stroke-linejoin: miter; stroke-miterlimit: 4; fill: rgb(255,255,255); fill-rule: nonzero; opacity: 1; visibility: hidden;"  x="-540" y="-540" rx="0" ry="0" width="1080" height="1080" />
</g>
<g transform="matrix(2.99 0 0 2.99 34.82 34.82)"  >
<rect style="stroke: rgb(0,0,0); stroke-width: 2; stroke-dasharray: none; stroke-linecap: round; stroke-dashoffset: 0; stroke-linejoin: round; stroke-miterlimit: 4; fill: rgb(255,255,255); fill-rule: nonzero; opacity: 1;"  x="-9" y="-9" rx="2" ry="2" width="18" height="18" />
</g>
<g transform="matrix(3.8 0 0 3.8 34.87 35.41)"  >
<path style="stroke: none; stroke-width: 0; stroke-dasharray: none; stroke-linecap: butt; stroke-dashoffset: 0; stroke-linejoin: miter; stroke-miterlimit: 4; fill: rgb(0,0,0); fill-rule: evenodd; opacity: 1;"  transform=" translate(-12, -12.14)" d="M 15.8563 12.1403 C 15.8563 12.315 15.8409 12.4795 15.8204 12.644 L 16.9049 13.4922 C 17.0026 13.5693 17.0283 13.708 16.9666 13.8211 L 15.9386 15.5997 C 15.8923 15.6819 15.8049 15.7282 15.7175 15.7282 C 15.6867 15.7282 15.6559 15.723 15.625 15.7128 L 14.3451 15.1987 C 14.0778 15.3992 13.7899 15.574 13.4764 15.7025 L 13.2811 17.0646 C 13.2656 17.188 13.1577 17.2805 13.0292 17.2805 L 10.9731 17.2805 C 10.8446 17.2805 10.7366 17.188 10.7212 17.0646 L 10.5259 15.7025 C 10.2123 15.574 9.92447 15.4043 9.65717 15.1987 L 8.37725 15.7128 C 8.35155 15.723 8.3207 15.7282 8.28986 15.7282 C 8.19734 15.7282 8.10995 15.6819 8.06369 15.5997 L 7.03564 13.8211 C 6.97396 13.708 6.99966 13.5693 7.09732 13.4922 L 8.18192 12.644 C 8.16136 12.4795 8.14594 12.3099 8.14594 12.1403 C 8.14594 11.9706 8.16136 11.801 8.18192 11.6365 L 7.09732 10.7884 C 6.99966 10.7113 6.96881 10.5725 7.03564 10.4594 L 8.06369 8.68087 C 8.10995 8.59862 8.19734 8.55236 8.28472 8.55236 C 8.31556 8.55236 8.34641 8.5575 8.37725 8.56778 L 9.65717 9.08181 C 9.92447 8.88134 10.2123 8.70657 10.5259 8.57806 L 10.7212 7.21589 C 10.7366 7.09252 10.8446 7 10.9731 7 L 13.0292 7 C 13.1577 7 13.2656 7.09252 13.2811 7.21589 L 13.4764 8.57806 C 13.7899 8.70657 14.0778 8.8762 14.3451 9.08181 L 15.625 8.56778 C 15.6507 8.5575 15.6816 8.55236 15.7124 8.55236 C 15.8049 8.55236 15.8923 8.59862 15.9386 8.68087 L 16.9666 10.4594 C 17.0283 10.5725 17.0026 10.7113 16.9049 10.7884 L 15.8204 11.6365 C 15.8409 11.801 15.8563 11.9655 15.8563 12.1403 Z M 14.8283 12.1403 C 14.8283 12.0323 14.8231 11.9244 14.8026 11.765 L 14.7306 11.1842 L 15.1881 10.8244 L 15.7381 10.3874 L 15.3783 9.76547 L 14.7255 10.0276 L 14.1806 10.2487 L 13.7128 9.88884 C 13.5072 9.73463 13.3016 9.6164 13.0806 9.52388 L 12.5357 9.30285 L 12.3558 8.02806 L 11.6413 8.02806 L 11.5385 8.722 L 11.4562 9.30285 L 10.9114 9.52388 C 10.7006 9.61126 10.4899 9.73463 10.2688 9.89912 L 9.80622 10.2487 L 9.27164 10.0328 L 8.61882 9.77061 L 8.259 10.3926 L 8.81415 10.8244 L 9.27164 11.1842 L 9.19967 11.765 C 9.18425 11.9192 9.17397 12.0375 9.17397 12.1403 C 9.17397 12.2431 9.18425 12.3613 9.19967 12.5207 L 9.27164 13.1015 L 8.81415 13.4613 L 8.259 13.8931 L 8.61882 14.5151 L 9.27164 14.2529 L 9.8165 14.0319 L 10.2843 14.3917 C 10.4899 14.5459 10.6955 14.6641 10.9165 14.7567 L 11.4614 14.9777 L 11.6413 16.2525 L 12.3609 16.2525 L 12.4637 15.5585 L 12.546 14.9777 L 13.0909 14.7567 C 13.3016 14.6693 13.5124 14.5459 13.7334 14.3814 L 14.196 14.0319 L 14.7306 14.2478 L 15.3834 14.5099 L 15.7432 13.888 L 15.1881 13.4562 L 14.7306 13.0964 L 14.8026 12.5155 C 14.818 12.3613 14.8283 12.2482 14.8283 12.1403 Z M 12.0011 10.0842 C 10.8651 10.0842 9.945 11.0043 9.945 12.1403 C 9.945 13.2763 10.8651 14.1964 12.0011 14.1964 C 13.1371 14.1964 14.0572 13.2763 14.0572 12.1403 C 14.0572 11.0043 13.1371 10.0842 12.0011 10.0842 Z M 10.9731 12.1403 C 10.9731 12.7057 11.4357 13.1683 12.0011 13.1683 C 12.5666 13.1683 13.0292 12.7057 13.0292 12.1403 C 13.0292 11.5748 12.5666 11.1122 12.0011 11.1122 C 11.4357 11.1122 10.9731 11.5748 10.9731 12.1403 Z" stroke-linecap="round" />
</g>
</svg>